<svg width="682" height="697" viewBox="0 0 682 697" fill="none" xmlns="http://www.w3.org/2000/svg">
<rect width="682" height="697" rx="154" fill="#DE832E"/>
<g clip-path="url(#clip0_511_97)">
<path d="M402.444 423.033C400.162 423.033 398.37 425.098 398.37 427.726V441.9C398.37 444.529 400.162 446.594 402.444 446.594C404.725 446.594 406.517 444.529 406.517 441.9V427.726C406.517 425.098 404.725 423.033 402.444 423.033Z" fill="white"/>
<path d="M589.837 428.383L583.889 366.805L580.223 366.899C557.165 367.556 537.53 347.468 534.923 320.809C532.315 294.15 547.551 269.837 570.283 264.299L573.868 263.454L567.92 201.876C566.372 186.575 554.395 175.498 541.115 177.188L187.267 222.715C179.69 223.653 173.253 228.722 169.342 236.138H117.28C103.918 236.044 93 248.623 93 264.017V326.065L96.9923 326.159C121.598 326.816 140.908 349.627 140.908 377.975C140.908 406.324 121.598 429.134 96.9923 429.791L93 429.979V492.027C93 507.422 103.918 520 117.28 520H473.327C486.689 520 497.607 507.422 497.607 492.027V468.466L568.491 459.36C574.927 458.516 580.712 454.855 584.786 449.035C588.778 443.121 590.57 435.799 589.837 428.383ZM489.459 492.027C489.459 502.259 482.208 510.613 473.327 510.613H406.517V477.383C406.517 474.755 404.725 472.69 402.444 472.69C400.162 472.69 398.37 474.755 398.37 477.383V510.519H117.28C108.399 510.613 101.148 502.259 101.148 492.027V438.991C128.36 435.987 149.055 409.985 149.055 378.069C149.055 346.06 128.279 320.152 101.148 317.148V264.017C101.148 253.786 108.399 245.431 117.28 245.431H398.37V394.59C398.37 397.219 400.162 399.284 402.444 399.284C404.725 399.284 406.517 397.219 406.517 394.59V245.431H473.327C482.208 245.431 489.459 253.786 489.459 264.017V317.617C463.958 322.498 445.218 347.843 445.218 378.069C445.218 408.295 464.039 433.546 489.459 438.521V492.027V492.027ZM578.349 443.121C575.66 446.97 571.831 449.41 567.513 449.973L497.607 458.985V430.073L493.94 429.698C470.801 427.069 453.366 404.916 453.366 378.069C453.366 351.222 470.801 329.069 493.94 326.441L497.607 326.065V264.111C497.607 248.717 486.689 236.138 473.327 236.138H179.853C182.216 233.979 184.986 232.477 188.163 232.102L542.011 186.575C550.892 185.355 558.795 192.77 559.854 203.002L564.987 256.226C540.137 264.393 523.923 291.897 526.775 321.935C529.627 351.973 550.81 374.69 576.557 376.286L581.69 429.51C582.26 434.391 581.038 439.272 578.349 443.121Z" fill="white"/>
<path d="M323.983 353.1L283.734 346.341L265.728 304.381C262.958 297.904 253.832 297.904 251.062 304.381L233.056 346.341L192.889 353.1C189.793 353.663 187.267 356.103 186.289 359.483C185.312 362.956 186.126 366.617 188.326 369.151L217.413 401.818L210.569 447.908C209.999 451.475 211.302 455.042 213.828 457.107C215.295 458.328 216.924 458.891 218.635 458.891C219.939 458.891 221.242 458.515 222.464 457.764L258.476 435.987L294.407 457.764C297.177 459.454 300.518 459.172 303.044 457.013C305.569 454.854 306.873 451.381 306.303 447.814L299.459 401.63L328.545 368.964C330.827 366.429 331.56 362.768 330.582 359.295C329.686 356.01 327.079 353.569 323.983 353.1ZM293.755 395.059C291.8 397.218 290.985 400.316 291.393 403.414L298.155 449.598L262.224 427.82C261.002 427.069 259.699 426.693 258.395 426.693C257.091 426.693 255.788 427.069 254.566 427.82L218.554 449.504L225.397 403.414C225.886 400.316 224.99 397.218 223.035 395.059L193.948 362.299L234.115 355.54C236.804 355.071 239.085 353.193 240.307 350.377L258.476 308.418L276.483 350.377C277.705 353.193 279.986 355.071 282.675 355.54L322.924 362.393L293.755 395.059Z" fill="white"/>
</g>
<defs>
<clipPath id="clip0_511_97">
<rect width="497" height="343" fill="white" transform="translate(93 177)"/>
</clipPath>
</defs>
</svg>
