<?xml version="1.0" encoding="iso-8859-1"?>
<!-- Generator: Adobe Illustrator 19.1.0, SVG Export Plug-In . SVG Version: 6.00 Build 0)  -->
<svg version="1.1" id="Capa_1" xmlns="http://www.w3.org/2000/svg" xmlns:xlink="http://www.w3.org/1999/xlink" x="0px" y="0px"
	 viewBox="0 0 118.177 118.177" style="enable-background:new 0 0 118.177 118.177;" xml:space="preserve">
<g>
	<path d="M115.233,7.788c-0.8-2.69-3.332-7.28-11.306-7.779c-1.824-0.106-9.221,0.478-17.944,15.417l-31.242-0.037h-0.004
		c-0.52,0-1.017,0.126-1.459,0.354c-0.356,0.17-0.682,0.409-0.962,0.705L3.337,68.524c-1.248,1.326-1.183,3.412,0.143,4.661
		l46.884,44.098c0.635,0.598,1.448,0.895,2.258,0.895c0.877,0,1.753-0.349,2.4-1.037l48.818-51.902
		c0.733-0.662,1.143-1.633,1.08-2.651l-1.837-29.396C112.346,25.526,117.41,15.115,115.233,7.788z M52.479,110.222L10.396,70.64
		L56.16,21.983l26.361,0.031c-1.298,2.729-2.613,5.815-3.932,9.257c-2.975-0.213-6.043,0.764-8.13,2.984
		c-3.802,4.041-3.608,10.425,0.435,14.233c1.876,1.765,4.325,2.734,6.898,2.734c2.766,0,5.441-1.156,7.336-3.171
		c1.842-1.957,2.811-4.518,2.728-7.206c-0.082-2.687-1.206-5.182-3.165-7.024c-0.373-0.351-0.792-0.635-1.212-0.916
		c1.482-3.686,3.158-7.402,4.937-10.885l7.364,0.009l2.471,39.53L52.479,110.222z M82.802,41c0.04,1.339-0.442,2.613-1.359,3.587
		c-1.834,1.946-5.134,2.048-7.079,0.217c-2.012-1.894-2.109-5.073-0.218-7.082c0.718-0.764,1.628-1.27,2.628-1.475
		c-0.462,1.332-0.925,2.698-1.386,4.129c-0.43,1.331,0.302,2.756,1.632,3.184c0.258,0.083,0.519,0.124,0.775,0.124
		c1.069,0,2.063-0.683,2.407-1.754c0.419-1.299,0.889-2.65,1.38-4.018C82.324,38.777,82.766,39.846,82.802,41z M102.167,18.532
		c-0.109-1.735-1.547-3.088-3.286-3.091l-6.769-0.008c3.898-6.254,7.991-10.602,11.499-10.373c3.741,0.233,6.02,1.636,6.772,4.169
		c1.211,4.079-1.45,11.125-7.708,17.432L102.167,18.532z"/>
	<path d="M60.062,63.304l-2.757-2.593l-2.514,2.673c-3.566-2.24-7.134-1.94-9.464,0.536c-2.566,2.728-1.835,6.066,0.223,9.91
		c1.419,2.661,1.684,4.183,0.678,5.253c-1.058,1.125-2.737,0.711-4.34-0.797c-1.828-1.719-2.932-3.872-3.506-5.629l-3.94,2.498
		c0.487,1.623,1.84,3.85,3.645,5.708l-2.512,2.671l2.757,2.593l2.697-2.868c3.764,2.479,7.547,2.009,9.902-0.494
		c2.383-2.533,2.487-5.35,0.251-9.68c-1.545-3.149-1.974-4.667-1.101-5.594c0.741-0.788,2.073-1.02,3.902,0.7
		c2.025,1.905,2.709,3.77,3.15,4.768l3.806-2.412c-0.503-1.324-1.402-2.907-3.207-4.765L60.062,63.304z"/>
	<path d="M49.506,38.631c-0.421-0.392-1.09-0.376-1.489,0.047c-0.399,0.422-0.379,1.09,0.045,1.49l33.015,31.054
		c0.203,0.19,0.462,0.286,0.722,0.286c0.28,0,0.56-0.113,0.767-0.332c0.4-0.423,0.379-1.09-0.045-1.49L49.506,38.631z"/>
</g>
<g>
</g>
<g>
</g>
<g>
</g>
<g>
</g>
<g>
</g>
<g>
</g>
<g>
</g>
<g>
</g>
<g>
</g>
<g>
</g>
<g>
</g>
<g>
</g>
<g>
</g>
<g>
</g>
<g>
</g>
</svg>
