<svg width="48" height="48" viewBox="0 0 48 48" fill="none" xmlns="http://www.w3.org/2000/svg">
<path d="M43.7812 0H4.21875C1.89253 0 0 1.89253 0 4.21875V43.7812C0 46.1075 1.89253 48 4.21875 48H43.7812C46.1075 48 48 46.1075 48 43.7812V4.21875C48 1.89253 46.1075 0 43.7812 0ZM45.1875 43.7812C45.1875 44.5567 44.5567 45.1875 43.7812 45.1875H4.21875C3.44334 45.1875 2.8125 44.5567 2.8125 43.7812V14.0625H21.0938C21.4668 14.0625 21.8244 13.9144 22.0881 13.6506L25.4262 10.3125H45.1875V43.7812ZM45.1875 7.5H24.8438C24.4707 7.5 24.1131 7.64812 23.8494 7.91194L20.5113 11.25H2.8125V4.21875C2.8125 3.44334 3.44334 2.8125 4.21875 2.8125H43.7812C44.5567 2.8125 45.1875 3.44334 45.1875 4.21875V7.5Z" fill="#0099BB"/>
<path d="M7.03125 8.4375C7.8079 8.4375 8.4375 7.8079 8.4375 7.03125C8.4375 6.2546 7.8079 5.625 7.03125 5.625C6.2546 5.625 5.625 6.2546 5.625 7.03125C5.625 7.8079 6.2546 8.4375 7.03125 8.4375Z" fill="#0099BB"/>
<path d="M12.6562 8.4375C13.4329 8.4375 14.0625 7.8079 14.0625 7.03125C14.0625 6.2546 13.4329 5.625 12.6562 5.625C11.8796 5.625 11.25 6.2546 11.25 7.03125C11.25 7.8079 11.8796 8.4375 12.6562 8.4375Z" fill="#0099BB"/>
<path d="M18.2812 8.4375C19.0579 8.4375 19.6875 7.8079 19.6875 7.03125C19.6875 6.2546 19.0579 5.625 18.2812 5.625C17.5046 5.625 16.875 6.2546 16.875 7.03125C16.875 7.8079 17.5046 8.4375 18.2812 8.4375Z" fill="#0099BB"/>
<path d="M14.1667 18.1083L11.3542 40.7958C11.2501 41.6347 11.9044 42.375 12.7497 42.375H35.2497C36.095 42.375 36.7493 41.6347 36.6453 40.7958L33.8328 18.1083C33.7454 17.4038 33.1469 16.875 32.4372 16.875H15.5622C14.8525 16.875 14.254 17.4038 14.1667 18.1083ZM31.1946 19.6875L33.6583 39.5625H14.3411L16.8049 19.6875H31.1946Z" fill="#0099BB"/>
<path d="M24 30.9375C26.5847 30.9375 28.6875 28.8347 28.6875 26.25V23.9062C28.6875 23.1296 28.0579 22.5 27.2812 22.5C26.5046 22.5 25.875 23.1296 25.875 23.9062V26.25C25.875 27.2839 25.0339 28.125 24 28.125C22.9661 28.125 22.125 27.2839 22.125 26.25V23.9062C22.125 23.1296 21.4954 22.5 20.7188 22.5C19.9421 22.5 19.3125 23.1296 19.3125 23.9062V26.25C19.3125 28.8347 21.4153 30.9375 24 30.9375Z" fill="#0099BB"/>
</svg>
