<?xml version="1.0" ?><svg id="outline" viewBox="0 0 340 340" xmlns="http://www.w3.org/2000/svg"><title/><path d="M179.324,112.4a16.5,16.5,0,0,0-21.209,6.64A14.559,14.559,0,0,0,156.79,130.7a15.165,15.165,0,0,0,14.668,10.376,16.58,16.58,0,0,0,4.961-.764,16.233,16.233,0,0,0,9.318-7.428,14.5,14.5,0,0,0-6.413-20.486Zm-.538,16.525a8.249,8.249,0,0,1-4.758,3.754c-4.134,1.293-8.443-.664-9.6-4.368a6.638,6.638,0,0,1,.641-5.311,8.252,8.252,0,0,1,4.757-3.753,8.69,8.69,0,0,1,2.6-.4,7.987,7.987,0,0,1,3.453.773,6.507,6.507,0,0,1,2.913,9.308Z"/><path d="M286.97,247.466c4.259-18.537-.043-58.737-.234-60.483,0-.036-.008-.072-.013-.108-2.359-17.285-15.535-24.294-23.936-27.032-.911-3.541-1.9-6.948-2.97-10.186,13.559-5.868,20.41-19.7,22.377-28.511a4,4,0,0,0-5.547-4.518c-.069.032-7.674,2.786-24.414-4.7a50.953,50.953,0,0,0-11.058-3.531,4,4,0,1,0-1.525,7.854,42.864,42.864,0,0,1,9.316,2.98c10.553,4.721,18.248,5.918,23.341,5.918h.131c-3.48,8.166-12.278,21.781-31.658,18.905-9.412-1.393-15.631-5.36-18.548-11.788a32.471,32.471,0,0,0,9.19-22.633V85h22.246a12.115,12.115,0,0,0,12.1-12.1,13.234,13.234,0,0,0-13.218-13.218H135.838c1.813-2.981,4.121-6.558,6.678-9.988.489-.656.952-1.333,1.4-2.019h77.544c.183,1.125.358,2.279.519,3.482A4,4,0,1,0,229.91,50.1q-.508-3.822-1.178-7.2l-.009-.046C221.983,8.564,204.237,6.7,203.367,6.633c-8.235-.521-16.475,3.051-21.917,6.135a8.111,8.111,0,0,1-6.893.421,47.794,47.794,0,0,0-10.776-2.725,14.888,14.888,0,0,0-14.634,6.572c-3.4,5.3-6.175,12.66-7.9,17.9a35.014,35.014,0,0,1-5.143,9.979,148.874,148.874,0,0,0-9.545,14.769h-20.1A13.234,13.234,0,0,0,93.24,72.9a12.009,12.009,0,0,0,1.2,5.216c-6.247,1.961-12.24,6.328-15.216,11.532-16.006,27.986-27.082,63.643-32.26,82.406a22.386,22.386,0,0,0,13.213,26.728l27.667,11.155h0l11.839,4.774c-.011.625-.021,1.251-.021,1.88v16.242A69.3,69.3,0,0,0,84.413,244.75,21.49,21.49,0,0,0,78.4,259.1c-.354,11.384.791,32.164,12.437,43.426,5.255,5.082,11.967,7.648,19.979,7.648.317,0,.646-.023.967-.031,5.672,4.718,13.958,8.73,26.064,9.981a71.324,71.324,0,0,0-.048,9.553,4,4,0,0,0,3.988,3.742c.087,0,.175,0,.262-.009a4,4,0,0,0,3.733-4.25,77.508,77.508,0,0,1,2.934-24.939,86.222,86.222,0,0,0,3.009-27.66l-.159-2.969h57.519l-.021.806a85.255,85.255,0,0,0,1.183,16.291,16.7,16.7,0,0,0-2.941,2.126,16.89,16.89,0,0,0-5.54,12.494v11.273A16.855,16.855,0,0,0,218.6,333.418h6.662a32.755,32.755,0,0,0,17.288-4.939c26.817-16.652,42.085-40.782,48.8-53.683a22.224,22.224,0,0,0-.957-22.141C289.265,250.884,288.115,249.148,286.97,247.466ZM148.842,37.439c1.583-4.8,4.089-11.484,7.04-16.085a6.89,6.89,0,0,1,6.788-2.969,39.893,39.893,0,0,1,8.969,2.253,15.971,15.971,0,0,0,13.756-.91c6.359-3.6,12.575-5.417,17.4-5.116.127.011,11.2,1.643,17.045,25.062H148.031C148.318,38.939,148.593,38.2,148.842,37.439ZM278.789,187.9c.156,1.471,3.3,31.451,1.525,50.264-3.811-5.09-6.762-8.668-7.405-9.442-.826-1.226-1.688-2.461-2.57-3.7-.316-21.058-2.123-39.682-5.377-55.7C271.3,172.416,277.412,177.952,278.789,187.9Zm-14.453,42.475-3.245,2.653L245.469,245.8V218.84a59.111,59.111,0,0,0-1.8-14.141A306.273,306.273,0,0,1,264.336,230.376Zm-39.778-23.308A149.255,149.255,0,0,1,213.021,188.2a96.739,96.739,0,0,1-3.673-12.735h4.075A12.738,12.738,0,0,1,223.987,181c5.036,7.405,13.482,22.168,13.482,37.836v31.131c0,.188-.378,18.785-12.738,26.986a4,4,0,1,0,4.423,6.666c9.53-6.323,13.49-16.834,15.139-24.426l8.095,8.367c-3.6,9.829-14.483,20.569-19.073,24.8a35.773,35.773,0,0,0-13.093-3.819,16.428,16.428,0,0,0-2.228-.054,76.94,76.94,0,0,1-.933-13.886l.516-19.746a17.856,17.856,0,0,0,1.677-.882c8.924-5.382,13.626-14.2,13.6-25.5C232.829,219.827,228.407,212.492,224.558,207.068Zm15.05-55.106a43.375,43.375,0,0,0,6.346.481,36.878,36.878,0,0,0,6.185-.511c5.519,16.526,8.838,37.36,9.888,62.119-9.459-11.831-19.8-22.973-26.229-29.67a4.1,4.1,0,0,0-.636-.535c-1.517-2.678-3.069-5.148-4.559-7.34a20.73,20.73,0,0,0-17.18-9.046h-8.24l-.634-.169a6.171,6.171,0,0,1-4.532-5.308,115.208,115.208,0,0,1-.316-19.912,31.732,31.732,0,0,0,16.14-4.689C219.28,143.648,226.11,149.964,239.608,151.962Zm-55.3,42.05a4,4,0,0,0-4,4v5.741c-13.875-5.712-19.608-12.823-21.459-15.679l5.306-13.636a12.214,12.214,0,0,0,9.02-11.822v-8.441a35.984,35.984,0,0,0,18.236-5.316,127.331,127.331,0,0,0,.644,13.934,14.219,14.219,0,0,0,8.99,11.758,93.338,93.338,0,0,0,3.806,14.522,53.907,53.907,0,0,1-16.543,14.1v-5.156A4,4,0,0,0,184.311,194.012Zm-39.984-75.984V85h31.409c.189,9.46,4.114,23.774,18.547,30.451a4.486,4.486,0,0,1,2.687,4.014c.075,7.347-.88,13.268-2.622,16.32a28.16,28.16,0,0,1-50.021-17.757Zm79.1-8.4a24.485,24.485,0,0,1-19.8,24.044,58.178,58.178,0,0,0,1.352-14.288,12.422,12.422,0,0,0-7.328-11.194C185.767,102.7,183.909,90.914,183.765,85h39.657ZM106.458,67.681H252.551a5.224,5.224,0,0,1,5.218,5.218,4.106,4.106,0,0,1-4.1,4.1H135.706a4,4,0,0,0,0,8h.621v33.028a36.259,36.259,0,0,0,.449,5.676c-6.828,4.99-16.954,15.075-22.066,33.243a4,4,0,1,0,7.7,2.166c3.921-13.933,11.081-22.339,16.734-27.095a36.3,36.3,0,0,0,26.033,21.432v9.166a4.237,4.237,0,0,1-4.06,4.244H145.231a15.449,15.449,0,0,0-9.306,3.082l-36.672-2.473h-.018l-10.549-.711c4.543-24.83,12.168-51.8,14.644-60.3l6.72-.287A18.29,18.29,0,0,0,127.6,87.859,10.871,10.871,0,0,0,116.737,77h-11.4a4.105,4.105,0,0,1-4.1-4.1A5.224,5.224,0,0,1,106.458,67.681ZM86.681,200.842l-23.514-9.481a14.387,14.387,0,0,1-8.493-17.179c5.078-18.4,15.921-53.337,31.493-80.564C88.792,89.027,95.819,85,101.205,85h15.532a2.862,2.862,0,0,1,2.859,2.859,10.307,10.307,0,0,1-9.888,10.32l-9.577.41a4,4,0,0,0-3.658,2.838c-.111.367-11.133,37-16.444,68.354A4,4,0,0,0,83.7,174.44l10.1.681Zm7.468,3.011,7.809-28.183,28.133,1.9c-3.94,7.26-8.772,19.383-10.125,36.7ZM96.4,296.774c-9.784-9.461-10.254-29.325-10-37.427a13.517,13.517,0,0,1,3.76-9.027,62.814,62.814,0,0,1,9.507-8.043v46.968a4.18,4.18,0,0,0,.022.418,31.738,31.738,0,0,0,4.408,11.584A18.372,18.372,0,0,1,96.4,296.774Zm44.609,5.31a96.947,96.947,0,0,0-2.224,10.09c-11.192-1.135-18.383-4.874-23-9.043-.029-.027-.059-.053-.089-.079a25.037,25.037,0,0,1-8.036-14.063v-71.06l11.945,4.816c0,.365-.011.724-.011,1.093v39.231c0,.042,0,.084,0,.126.015.482.466,11.892,8.654,19.37a24.309,24.309,0,0,0,15.22,6.143A78.215,78.215,0,0,1,141.006,302.084ZM133.691,276.7c-5.494-4.979-6.059-13.092-6.095-13.718V223.838c0-24.064,7.11-38.88,11.347-45.57a7.383,7.383,0,0,1,6.288-3.408H155.41l-4.695,12.066,0,.005c-3.336,8.575-8.375,16.011-13.324,22.77-6.3,8.608-8.5,18.048-6.173,26.578a29.163,29.163,0,0,0,11.135,15.877c.338,5.827.884,15.385,1.385,24.828.066,1.242.094,2.482.1,3.721A16.544,16.544,0,0,1,133.691,276.7Zm75.6-11.108H151.127c-.19-3.416-.372-6.632-.532-9.427a18.725,18.725,0,0,0,3.994.436h54.939Zm.439-16.991H154.589a10.4,10.4,0,0,1-5.367-1.463,22.092,22.092,0,0,1-10.288-12.962c-2.254-8.272,2.108-15.923,4.909-19.748a126.434,126.434,0,0,0,11.382-17.988c4.44,4.993,12.816,11.847,27.819,16.859.091.031.186.045.279.069s.175.048.267.065a3.9,3.9,0,0,0,.619.062c.035,0,.067.011.1.011l.017,0a4.014,4.014,0,0,0,.741-.075c.079-.015.153-.041.23-.061.121-.031.244-.054.362-.1a61.558,61.558,0,0,0,23.019-16.234,172.249,172.249,0,0,0,9.354,14.663c3.362,4.736,6.8,10.435,6.817,16.8.021,8.453-3.251,14.719-9.728,18.625A10.437,10.437,0,0,1,209.732,248.6Zm74.523,22.5c-6.336,12.175-20.728,34.935-45.924,50.58a24.751,24.751,0,0,1-13.067,3.736H218.6a8.847,8.847,0,0,1-8.837-8.837V305.308a8.758,8.758,0,0,1,2.911-6.565,8.67,8.67,0,0,1,5.869-2.28q.443,0,.891.043A27.622,27.622,0,0,1,230.584,300a36.99,36.99,0,0,1,1.7,6.3,4,4,0,0,0,3.941,3.342,4.053,4.053,0,0,0,.663-.055,4,4,0,0,0,3.287-4.6,43.828,43.828,0,0,0-1.66-6.523c5.325-4.867,19-18.324,22.266-30.964a4,4,0,0,0-1-3.783l-10.411-10.764,13.117-10.727,6.647-5.434c3.262,4.106,9.2,11.841,14.508,20.171A14.2,14.2,0,0,1,284.255,271.1Z"/><circle cx="155.249" cy="101.655" r="4"/><circle cx="169.179" cy="101.655" r="4"/></svg>