<svg width="48" height="48" viewBox="0 0 48 48" fill="none" xmlns="http://www.w3.org/2000/svg">
<path d="M17.5973 0H4.1558C1.86424 0 0 1.86424 0 4.1558V17.5973C0 19.8888 1.86424 21.753 4.1558 21.753H17.5973C19.8888 21.753 21.753 19.8888 21.753 17.5973V4.1558C21.7532 1.86424 19.8888 0 17.5973 0ZM18.3728 17.5973C18.3728 18.0249 18.0249 18.3728 17.5973 18.3728H4.1558C3.72816 18.3728 3.3802 18.0249 3.3802 17.5973V4.1558C3.3802 3.72816 3.72816 3.3802 4.1558 3.3802H17.5973C18.0249 3.3802 18.3728 3.72816 18.3728 4.1558V17.5973Z" fill="#9B9B9B"/>
<path d="M43.8438 0H30.4024C28.1108 0 26.2466 1.86424 26.2466 4.1558V17.5973C26.2466 19.8888 28.1108 21.753 30.4024 21.753H43.8438C46.1354 21.753 47.9996 19.8888 47.9996 17.5973V4.1558C47.9996 1.86424 46.1354 0 43.8438 0ZM44.6194 17.5973C44.6194 18.0249 44.2715 18.3728 43.8438 18.3728H30.4024C29.9747 18.3728 29.6268 18.0249 29.6268 17.5973V4.1558C29.6268 3.72816 29.9747 3.3802 30.4024 3.3802H43.8438C44.2715 3.3802 44.6194 3.72816 44.6194 4.1558V17.5973Z" fill="#9B9B9B"/>
<path d="M17.5973 26.2468H4.1558C1.86424 26.2468 0 28.1112 0 30.4028V43.8442C0 46.1358 1.86424 48 4.1558 48H17.5973C19.8888 48 21.753 46.1358 21.753 43.8442V30.4028C21.7532 28.1112 19.8888 26.2468 17.5973 26.2468ZM18.3728 43.8442C18.3728 44.2719 18.0249 44.6198 17.5973 44.6198H4.1558C3.72816 44.6198 3.3802 44.2719 3.3802 43.8442V30.4028C3.3802 29.9752 3.72816 29.6272 4.1558 29.6272H17.5973C18.0249 29.6272 18.3728 29.9752 18.3728 30.4028V43.8442Z" fill="#9B9B9B"/>
<path d="M43.8438 26.2468H30.4024C28.1108 26.2468 26.2466 28.1111 26.2466 30.4026V43.8441C26.2466 46.1356 28.1108 47.9999 30.4024 47.9999H43.8438C46.1354 48 47.9996 46.1358 47.9996 43.8442V30.4028C47.9996 28.1112 46.1354 26.2468 43.8438 26.2468ZM44.6194 43.8442C44.6194 44.2719 44.2715 44.6198 43.8438 44.6198H30.4024C29.9747 44.6198 29.6268 44.2719 29.6268 43.8442V30.4028C29.6268 29.9752 29.9747 29.6272 30.4024 29.6272H43.8438C44.2715 29.6272 44.6194 29.9752 44.6194 30.4028V43.8442Z" fill="#9B9B9B"/>
</svg>
