<?xml version="1.0" encoding="iso-8859-1"?>
<!-- Generator: Adobe Illustrator 18.1.1, SVG Export Plug-In . SVG Version: 6.00 Build 0)  -->
<svg version="1.1" id="Capa_1" xmlns="http://www.w3.org/2000/svg" xmlns:xlink="http://www.w3.org/1999/xlink" x="0px" y="0px"
	 viewBox="0 0 574.059 574.059" style="enable-background:new 0 0 574.059 574.059;" xml:space="preserve">
<g>
	<g>
		<path style="fill:#010002;" d="M287.028,574.058c-39.576,0-76.806-7.549-111.69-22.646c-34.884-15.096-65.28-35.598-91.188-61.506
			c-25.908-25.908-46.41-56.305-61.506-91.188S0,326.605,0,287.029s7.548-76.704,22.644-111.384s35.598-65.076,61.506-91.188
			s56.304-46.716,91.188-61.812c34.884-15.096,72.114-22.644,111.69-22.644s76.705,7.548,111.384,22.644
			c34.682,15.096,65.076,35.7,91.188,61.812c26.109,26.112,46.717,56.508,61.813,91.188c15.098,34.68,22.646,71.808,22.646,111.384
			s-7.549,76.806-22.646,111.691c-15.096,34.883-35.701,65.277-61.813,91.188c-26.111,25.908-56.508,46.41-91.188,61.506
			C363.732,566.51,326.604,574.058,287.028,574.058z M287.028,38.557c-34.272,0-66.504,6.528-96.696,19.584
			s-56.508,30.804-78.948,53.244s-40.188,48.756-53.244,78.948s-19.584,62.424-19.584,96.696c0,34.271,6.528,66.503,19.584,96.697
			c13.056,30.189,30.804,56.508,53.244,78.945c22.44,22.439,48.756,40.188,78.948,53.244c30.192,13.059,62.424,19.584,96.696,19.584
			c34.273,0,66.503-6.525,96.697-19.584c30.189-13.057,56.508-30.805,78.945-53.244c22.439-22.438,40.188-48.756,53.244-78.945
			c13.059-30.193,19.584-62.426,19.584-96.697c0-34.272-6.525-66.504-19.584-96.696c-13.057-30.192-30.805-56.508-53.244-78.948
			c-22.438-22.44-48.756-40.188-78.945-53.244C353.531,45.085,321.301,38.557,287.028,38.557z M329.256,113.833
			c0-11.832-4.078-21.828-12.238-29.988s-18.156-12.24-29.988-12.24s-21.726,4.08-29.682,12.24s-11.934,18.156-11.934,29.988
			s3.978,21.828,11.934,29.988s17.85,12.24,29.682,12.24s21.828-4.08,29.988-12.24S329.256,125.665,329.256,113.833z
			 M441.252,258.877l-60.588-52.632c-2.041-2.04-4.387-4.284-7.039-6.732c-2.648-2.448-5.402-4.896-8.262-7.344
			c-4.08-3.672-7.854-7.14-11.322-10.404c-3.467-3.264-6.221-5.508-8.262-6.732c-4.488-3.264-8.67-5.406-12.545-6.426
			c-3.877-1.02-8.67-1.53-14.383-1.53h-63.648c-5.712,0-10.506,0.51-14.382,1.53s-8.058,2.958-12.546,5.814
			c-2.04,1.632-4.794,4.08-8.262,7.344c-3.468,3.264-7.242,6.732-11.322,10.404c-2.856,2.448-5.61,4.896-8.262,7.344
			s-4.998,4.692-7.038,6.732l-60.588,52.632c-3.672,3.264-5.916,7.548-6.732,12.852c0,5.304,1.632,9.996,4.896,14.076
			c3.264,3.673,7.65,5.712,13.158,6.12c5.508,0.408,10.098-1.02,13.77-4.282c1.632-1.224,5.304-4.386,11.016-9.486
			s12.24-10.812,19.584-17.136c7.344-6.324,14.892-12.75,22.644-19.278c7.752-6.528,14.28-12.036,19.584-16.524
			c3.672-3.264,6.63-4.794,8.874-4.59c2.244,0.204,3.366,3.162,3.366,8.874v35.496c0,15.096-0.408,26.826-1.224,35.189
			c-0.816,8.365-1.428,12.955-1.836,13.77l-27.54,157.285c-1.224,6.938,0,12.854,3.672,17.748c3.264,5.303,8.364,8.568,15.3,9.791
			c6.528,1.225,12.444-0.102,17.748-3.977c5.304-3.879,8.568-8.875,9.792-14.994l1.53-8.875c0,0,1.224-7.445,3.672-22.338
			c2.448-14.895,4.08-24.582,4.896-29.07c0.816-4.488,2.55-14.381,5.202-29.682c2.652-15.303,4.182-23.563,4.59-24.785l2.754-13.771
			c0.408-1.633,0.612-2.959,0.612-3.979c0-1.021,0.204-2.145,0.612-3.365c0.816-4.488,2.244-6.631,4.284-6.426
			c2.041,0.203,3.468,2.346,4.285,6.426c0.408,1.223,0.611,2.346,0.611,3.365s0.201,2.346,0.609,3.979l2.754,13.771
			c0,0,1.531,8.262,4.59,24.785c3.063,16.521,4.797,26.418,5.203,29.682c0.408,3.264,2.039,12.955,4.896,29.07
			c2.854,16.113,4.08,23.563,3.672,22.338l1.529,8.875c0.814,5.711,3.469,10.4,7.957,14.074c4.484,3.674,9.588,5.51,15.299,5.51
			c2.041,0,3.469-0.205,4.285-0.613c6.936-1.223,12.033-4.488,15.299-9.791c3.672-4.896,4.896-10.813,3.672-17.748L334.15,314.571
			c0-1.225-0.51-6.02-1.531-14.383c-1.02-8.363-1.527-20.094-1.527-35.19l-0.611-36.108c0-5.712,1.223-8.568,3.672-8.568
			c2.447,0,5.508,1.632,9.18,4.896v-0.612c5.307,4.896,11.832,10.608,19.584,17.136s15.299,12.954,22.646,19.278
			c7.344,6.324,13.871,12.036,19.584,17.136c5.711,5.1,9.383,8.262,11.016,9.486c3.672,3.265,8.262,4.794,13.771,4.591
			c5.508-0.205,9.893-2.348,13.154-6.427c3.268-4.08,4.795-8.772,4.594-14.076C447.475,266.425,445.332,262.141,441.252,258.877z"/>
	</g>
</g>
<g>
</g>
<g>
</g>
<g>
</g>
<g>
</g>
<g>
</g>
<g>
</g>
<g>
</g>
<g>
</g>
<g>
</g>
<g>
</g>
<g>
</g>
<g>
</g>
<g>
</g>
<g>
</g>
<g>
</g>
</svg>
