<svg width="512" height="512" viewBox="0 0 512 512" fill="none" xmlns="http://www.w3.org/2000/svg">
<g clip-path="url(#clip0_211_2)">
<path d="M370.068 63.494C329.123 22.549 274.686 0 216.781 0C158.876 0 104.438 22.549 63.494 63.494C22.549 104.438 0 158.876 0 216.78C0 274.685 22.549 329.123 63.494 370.067C104.438 411.011 158.877 433.561 216.781 433.561C274.685 433.561 329.123 411.011 370.068 370.067C411.012 329.123 433.562 274.685 433.562 216.78C433.561 158.876 411.012 104.438 370.068 63.494ZM216.78 392.196C120.055 392.196 41.364 313.505 41.364 216.78C41.364 120.055 120.056 41.364 216.781 41.364C313.506 41.364 392.196 120.055 392.196 216.78C392.196 313.505 313.505 392.196 216.78 392.196Z" fill="#D5D5D5"/>
<path d="M505.943 476.693L369.981 340.732C361.904 332.655 348.809 332.655 340.732 340.732C332.656 348.809 332.656 361.904 340.732 369.981L476.693 505.942C480.731 509.981 486.025 512 491.318 512C496.611 512 501.905 509.981 505.943 505.942C514.019 497.865 514.019 484.77 505.943 476.693Z" fill="#D5D5D5"/>
</g>
<defs>
<clipPath id="clip0_211_2">
<rect width="512" height="512" fill="white"/>
</clipPath>
</defs>
</svg>
